<?xml version="1.0" encoding="iso-8859-1"?>
<!-- Generator: Adobe Illustrator 19.0.0, SVG Export Plug-In . SVG Version: 6.00 Build 0)  -->
<svg xmlns="http://www.w3.org/2000/svg" xmlns:xlink="http://www.w3.org/1999/xlink" version="1.1" id="Capa_1" x="0px" y="0px" viewBox="0 0 508.1 508.1" style="enable-background:new 0 0 508.1 508.1;" xml:space="preserve" width="512px" height="512px">
<g>
	<g>
		<path d="M404.5,223.365h-10.4c-43.3-56.8-117.1-91.1-192.7-91.8c-88-1.4-165.4,45-199.6,99h0.1c-1.2,2.1-1.9,4.4-1.9,6.9v86.5    c0,7.8,6.3,14.1,14.1,14.1h32c6.2,22.2,26.5,38.5,50.7,38.5c24.2,0,44.5-16.3,50.7-38.5h213.1c6.2,22.2,26.5,38.5,50.7,38.5    s44.5-16.3,50.7-38.5h32c7.8,0,14.1-6.3,14.1-14.1v-28.9C508,251.365,446.7,223.365,404.5,223.365z M214.7,160.365    c57,3.9,107.9,29.1,141.9,63H214.7V160.365z M186.5,160.165v63.2H43.4C79.3,186.965,126.2,164.965,186.5,160.165z M96.8,348.365    c-13.5,0-24.4-11-24.4-24.4c0-13.5,11-24.4,24.4-24.4c13.5,0,24.4,11,24.4,24.4C121.2,337.465,110.3,348.365,96.8,348.365z     M411.2,348.365c-13.5,0-24.4-11-24.4-24.4c0-13.5,11-24.4,24.4-24.4c13.5,0,24.4,11,24.4,24.4    C435.6,337.465,424.7,348.365,411.2,348.365z M479.8,309.865h-17.9c-6.2-22.2-26.5-38.5-50.7-38.5s-44.5,16.3-50.7,38.5h-213    c-6.2-22.2-26.5-38.5-50.7-38.5c-24.2,0-44.5,16.3-50.7,38.5H28.2v-58.2h376.3c35.2,0,75.3,23.2,75.3,43.5V309.865z" fill="#FFFFFF"/>
	</g>
</g>
<g>
</g>
<g>
</g>
<g>
</g>
<g>
</g>
<g>
</g>
<g>
</g>
<g>
</g>
<g>
</g>
<g>
</g>
<g>
</g>
<g>
</g>
<g>
</g>
<g>
</g>
<g>
</g>
<g>
</g>
</svg>
