<?xml version="1.0" encoding="iso-8859-1"?>
<!-- Generator: Adobe Illustrator 19.0.0, SVG Export Plug-In . SVG Version: 6.00 Build 0)  -->
<svg xmlns="http://www.w3.org/2000/svg" xmlns:xlink="http://www.w3.org/1999/xlink" version="1.1" id="Capa_1" x="0px" y="0px" viewBox="0 0 508.1 508.1" style="enable-background:new 0 0 508.1 508.1;" xml:space="preserve" width="512px" height="512px">
<g>
	<g>
		<path d="M503.6,205.1L449.2,97.2c-7-13.8-20.9-22.4-36.4-22.4h-372C18.3,74.8,0,93.1,0,115.6v227.1c0,22.5,18.3,40.8,40.8,40.8    h21.3c6.4,28.5,31.9,49.8,62.3,49.8c30.4,0,55.8-21.3,62.3-49.8h134.7c6.4,28.5,31.9,49.8,62.3,49.8c30.4,0,55.8-21.3,62.3-49.8    h21.3c22.5,0,40.8-18.3,40.8-40.8V223.5C508,217.1,506.5,210.8,503.6,205.1z M351,103h61.8c4.8,0,9.1,2.7,11.2,6.9l47,93.1H351    V103z M124.4,405c-19.7,0-35.7-16-35.7-35.7s16-35.7,35.7-35.7c19.7,0,35.7,16,35.7,35.7C160.1,389,144.1,405,124.4,405z     M383.6,405c-19.7,0-35.7-16-35.7-35.7s16-35.7,35.7-35.7s35.7,16,35.7,35.7C419.3,389,403.3,405,383.6,405z M479.7,342.7    c0.1,6.8-5.5,12.5-12.5,12.5h-21.3c-6.4-28.5-31.9-49.8-62.3-49.8c-30.4,0-55.8,21.3-62.3,49.8H186.7    c-6.4-28.5-31.9-49.8-62.3-49.8c-30.4,0-55.8,21.3-62.3,49.8H40.8c-6.9,0-12.5-5.6-12.5-12.5v-71.2h21.2c7.8,0,14.1-6.3,14.1-14.1    c0-7.8-6.3-14.1-14.1-14.1H28.2V215h56.4c7.8,0,14.1-6.3,14.1-14.1c0-7.8-6.3-14.1-14.1-14.1H28.2v-71.2c0-6.9,5.6-12.5,12.5-12.5    h282v114.1c0,7.8,6.3,14.1,14.1,14.1h142.9V342.7z" fill="#FFFFFF"/>
	</g>
</g>
<g>
</g>
<g>
</g>
<g>
</g>
<g>
</g>
<g>
</g>
<g>
</g>
<g>
</g>
<g>
</g>
<g>
</g>
<g>
</g>
<g>
</g>
<g>
</g>
<g>
</g>
<g>
</g>
<g>
</g>
</svg>
